<svg width="220" height="256" viewBox="0 0 220 256" fill="none" xmlns="http://www.w3.org/2000/svg">
<rect width="220" height="256" rx="24" fill="url(#paint0_linear_9047_378)"/>
<path d="M33 41H187" stroke="url(#paint1_linear_9047_378)" stroke-width="24" stroke-linecap="round"/>
<path d="M33 93H187" stroke="url(#paint2_linear_9047_378)" stroke-width="24" stroke-linecap="round"/>
<path d="M33 145H187" stroke="url(#paint3_linear_9047_378)" stroke-width="24" stroke-linecap="round"/>
<path d="M33 197H150" stroke="url(#paint4_linear_9047_378)" stroke-width="24" stroke-linecap="round"/>
<path d="M155.839 116.335C157.401 114.773 159.933 114.773 161.496 116.335L208.165 163.004C209.727 164.566 209.727 167.099 208.165 168.661L127.554 249.271C123.649 253.177 117.318 253.177 113.412 249.271L75.2285 211.088C71.3233 207.182 71.3233 200.851 75.2285 196.945L155.839 116.335Z" fill="white"/>
<path fill-rule="evenodd" clip-rule="evenodd" d="M183.416 108.557L215.943 141.084L201.094 155.933L168.567 123.406L183.416 108.557Z" fill="white"/>
<path d="M157.253 121.992C158.034 121.211 159.3 121.211 160.081 121.992L202.508 164.419C203.289 165.2 203.289 166.466 202.508 167.247L125.433 244.322C122.7 247.055 118.267 247.055 115.534 244.322L80.1784 208.966C77.4447 206.233 77.4447 201.801 80.1784 199.067L157.253 121.992Z" fill="url(#paint5_linear_9047_378)"/>
<path fill-rule="evenodd" clip-rule="evenodd" d="M183.416 115.628L208.872 141.084L194.022 155.934L168.567 130.478L183.416 115.628ZM182.992 123.689L188.083 128.781L181.719 135.145L176.628 130.053L182.992 123.689ZM200.811 141.509L195.72 136.417L189.356 142.781L194.447 147.872L200.811 141.509Z" fill="url(#paint6_linear_9047_378)"/>
<path fill-rule="evenodd" clip-rule="evenodd" d="M157.067 174.115C156.353 174.042 155.484 173.934 154.51 173.776C155.053 171.486 155.087 169.103 154.607 166.796C154.109 164.402 153.071 162.154 151.573 160.221C150.074 158.289 148.155 156.724 145.96 155.646C143.765 154.568 141.353 154.005 138.908 154.001C136.463 153.996 134.049 154.549 131.85 155.618C129.651 156.688 127.725 158.245 126.219 160.171C124.713 162.098 123.666 164.342 123.159 166.734C122.668 169.05 122.695 171.445 123.237 173.747C122.191 173.922 121.261 174.038 120.505 174.115C119.862 174.18 119.347 174.217 118.997 174.237C118.822 174.248 118.688 174.254 118.6 174.257C118.556 174.259 118.523 174.26 118.503 174.261L118.481 174.262L118.477 174.262C117.656 174.281 117 174.946 117 175.759V187.142C117 192.938 118.504 198.715 121.96 203.647C125.423 208.591 130.784 212.596 138.334 214.932C138.628 215.023 138.943 215.023 139.237 214.932C154.448 210.226 160.571 198.821 160.571 187.442V175.759C160.571 174.946 159.915 174.281 159.094 174.262L159.09 174.262L159.069 174.261C159.048 174.26 159.016 174.259 158.972 174.257C158.884 174.254 158.75 174.248 158.575 174.237C158.224 174.217 157.71 174.18 157.067 174.115ZM128.702 167.91C128.385 169.404 128.401 170.95 128.749 172.436C131.948 171.419 135.239 169.86 137.739 167.488C138.324 166.933 139.247 166.933 139.832 167.488C142.376 169.902 145.74 171.474 148.992 172.489C149.348 171 149.372 169.45 149.06 167.95C148.737 166.4 148.066 164.944 147.096 163.693C146.126 162.443 144.883 161.43 143.462 160.732C142.041 160.034 140.48 159.669 138.897 159.666C137.314 159.663 135.751 160.021 134.328 160.714C132.904 161.406 131.658 162.414 130.683 163.661C129.708 164.908 129.03 166.361 128.702 167.91ZM143.342 186.768C143.342 188.661 142.359 190.326 140.876 191.278L143.342 200.157H132.631L135.097 191.278C133.613 190.326 132.631 188.661 132.631 186.768C132.631 183.81 135.028 181.412 137.986 181.412C140.944 181.412 143.342 183.81 143.342 186.768Z" fill="white"/>
<defs>
<linearGradient id="paint0_linear_9047_378" x1="26.5517" y1="9.6" x2="164.513" y2="276.814" gradientUnits="userSpaceOnUse">
<stop stop-color="#FFC383"/>
<stop offset="0.5" stop-color="#FFB444"/>
<stop offset="1" stop-color="#FF7300"/>
</linearGradient>
<linearGradient id="paint1_linear_9047_378" x1="44" y1="30" x2="149.5" y2="119" gradientUnits="userSpaceOnUse">
<stop stop-color="#FF6F47"/>
<stop offset="1" stop-color="#99432B"/>
</linearGradient>
<linearGradient id="paint2_linear_9047_378" x1="44" y1="82" x2="149.5" y2="171" gradientUnits="userSpaceOnUse">
<stop stop-color="#FF6F47"/>
<stop offset="1" stop-color="#99432B"/>
</linearGradient>
<linearGradient id="paint3_linear_9047_378" x1="44" y1="134" x2="149.5" y2="223" gradientUnits="userSpaceOnUse">
<stop stop-color="#FF6F47"/>
<stop offset="1" stop-color="#99432B"/>
</linearGradient>
<linearGradient id="paint4_linear_9047_378" x1="41.3571" y1="186" x2="138.605" y2="248.328" gradientUnits="userSpaceOnUse">
<stop stop-color="#FF6F47"/>
<stop offset="1" stop-color="#99432B"/>
</linearGradient>
<linearGradient id="paint5_linear_9047_378" x1="110.255" y1="168.99" x2="137.2" y2="218.211" gradientUnits="userSpaceOnUse">
<stop stop-color="#52D17C"/>
<stop offset="0.5" stop-color="#36A87C"/>
<stop offset="1" stop-color="#1A7F7C"/>
</linearGradient>
<linearGradient id="paint6_linear_9047_378" x1="183.426" y1="96.6595" x2="194.871" y2="155.314" gradientUnits="userSpaceOnUse">
<stop stop-color="#E1DFDD"/>
<stop offset="1" stop-color="#7B7A79"/>
</linearGradient>
</defs>
</svg>
