<svg width="300" height="300" viewBox="0 0 300 300" fill="none" xmlns="http://www.w3.org/2000/svg">
<path fill-rule="evenodd" clip-rule="evenodd" d="M70.8242 131.647C65.3014 131.647 60.8242 136.125 60.8242 141.647V192.236C60.8242 197.759 65.3014 202.236 70.8242 202.236H144.942C150.465 202.236 154.942 197.759 154.942 192.236V141.647C154.942 136.125 150.465 131.647 144.942 131.647H70.8242ZM117.295 161.765C117.295 165.617 114.98 168.929 111.666 170.386L113.53 185.294H101.295L103.648 170.236H103.775C100.636 168.71 98.4713 165.49 98.4713 161.765C98.4713 156.567 102.685 152.353 107.883 152.353C113.081 152.353 117.295 156.567 117.295 161.765Z" fill="#2FA981"/>
<path d="M144.588 116.118C144.588 106.258 140.671 96.8021 133.7 89.8301C126.728 82.8582 117.272 78.9414 107.412 78.9414C97.552 78.9414 88.096 82.8582 81.1241 89.8301C74.1521 96.8021 70.2354 106.258 70.2354 116.118V128.824H76.8236H84.3932V116.118C84.3932 110.013 86.8183 104.158 91.1352 99.8412C95.452 95.5244 101.307 93.0992 107.412 93.0992C113.517 93.0992 119.372 95.5244 123.688 99.8412C128.005 104.158 130.43 110.013 130.43 116.118V128.824H138.471H144.588V116.118Z" fill="#2FA981"/>
<path fill-rule="evenodd" clip-rule="evenodd" d="M137.059 233.706V206H146.059V231H146V242.706H137.059V233.706ZM170 242.706H170.941V233.706H170V242.706ZM235.882 146.792L227 155.674V100H144.55L144.588 99.6469L140.353 91.1763H150.415H226.882H235.882V100.176V146.792Z" fill="#2FA981"/>
<path fill-rule="evenodd" clip-rule="evenodd" d="M160.875 116.441C159.494 116.441 158.375 117.56 158.375 118.941C158.375 120.322 159.494 121.441 160.875 121.441H212.066C213.447 121.441 214.566 120.322 214.566 118.941C214.566 117.56 213.447 116.441 212.066 116.441H160.875ZM160.875 129.617C159.494 129.617 158.375 130.737 158.375 132.117C158.375 133.498 159.494 134.617 160.875 134.617H212.066C213.447 134.617 214.566 133.498 214.566 132.117C214.566 130.737 213.447 129.617 212.066 129.617H160.875ZM158.375 145.294C158.375 143.913 159.494 142.794 160.875 142.794H212.066C213.447 142.794 214.566 143.913 214.566 145.294C214.566 146.675 213.447 147.794 212.066 147.794H160.875C159.494 147.794 158.375 146.675 158.375 145.294ZM160.875 155.97C159.494 155.97 158.375 157.09 158.375 158.47C158.375 159.851 159.494 160.97 160.875 160.97H212.066C213.447 160.97 214.566 159.851 214.566 158.47C214.566 157.09 213.447 155.97 212.066 155.97H160.875ZM158.375 171.647C158.375 170.266 159.494 169.147 160.875 169.147H207.934C209.314 169.147 210.434 170.266 210.434 171.647C210.434 173.027 209.314 174.147 207.934 174.147H160.875C159.494 174.147 158.375 173.027 158.375 171.647ZM160.875 182.323C159.494 182.323 158.375 183.443 158.375 184.823C158.375 186.204 159.494 187.323 160.875 187.323H193.816C195.197 187.323 196.316 186.204 196.316 184.823C196.316 183.443 195.197 182.323 193.816 182.323H160.875ZM158.372 198.227C158.372 196.846 159.491 195.727 160.872 195.727H179.696C181.076 195.727 182.196 196.846 182.196 198.227C182.196 199.608 181.076 200.727 179.696 200.727H160.872C159.491 200.727 158.372 199.608 158.372 198.227ZM160.875 208.676C159.494 208.676 158.375 209.795 158.375 211.176C158.375 212.557 159.494 213.676 160.875 213.676H179.698C181.079 213.676 182.198 212.557 182.198 211.176C182.198 209.795 181.079 208.676 179.698 208.676H160.875Z" fill="#2FA981"/>
<path fill-rule="evenodd" clip-rule="evenodd" d="M190.976 211.02L190.998 210.998L214.853 234.853L214.827 234.878C206.403 243.297 196.819 250.37 186.415 255.912C176.616 261.132 166.09 264.993 155.122 267.341C132.495 272.185 108.951 270.384 87.3247 262.155C65.6984 253.926 46.9124 239.621 33.2294 220.961C19.5464 202.301 11.55 180.083 10.2034 156.983C8.85684 133.884 14.2175 110.887 25.6397 90.764C37.0619 70.6407 54.0584 54.2489 74.5821 43.563C95.1058 32.877 118.281 28.3527 141.317 30.5349C152.768 31.6197 164.041 35.1574 174.714 40.2039C184.78 44.9635 194.311 51.0653 202.953 57.7171C203.581 58.2007 204.205 58.6873 204.823 59.1765L204.823 87.4117H176.588V77.398C165.047 69.992 151.869 65.4213 138.136 64.1203C121.576 62.5516 104.916 65.804 90.1618 73.4858C75.408 81.1676 63.1897 92.9511 54.9787 107.417C46.7676 121.883 42.914 138.414 43.882 155.02C44.85 171.626 50.5984 187.598 60.4346 201.011C70.2709 214.425 83.7756 224.709 99.3221 230.625C114.869 236.54 131.794 237.835 148.059 234.353C164.314 230.873 179.218 222.77 190.976 211.02Z" fill="#2FA981"/>
<path fill-rule="evenodd" clip-rule="evenodd" d="M186.297 202.304C184.574 204.027 184.667 206.914 186.504 208.752L216.452 238.7C218.29 240.538 221.177 240.631 222.9 238.907L278.439 183.368L274.446 179.375L278.19 175.631L249.573 147.014L245.829 150.758L241.836 146.765L186.297 202.304ZM229.598 189.616C230.288 188.927 230.25 187.772 229.515 187.037C228.78 186.302 227.625 186.265 226.936 186.954C226.474 187.416 226.339 188.087 226.521 188.701L223.599 191.623L223.889 200.649L222.224 202.315C220.038 200.723 217.059 200.824 215.204 202.68C213.136 204.748 213.247 208.212 215.453 210.417C217.658 212.622 221.122 212.734 223.19 210.666C225.045 208.811 225.146 205.831 223.555 203.646L228.692 198.509L237.365 197.821L240.081 195.106L240.746 195.772L243.242 193.276L240.58 190.614L238.084 193.11L238.749 193.775L236.472 196.053L230.69 196.511L244.2 183.001L247.377 186.178L249.775 176.095L239.692 178.493L242.869 181.67L225.654 198.884L225.447 192.437L227.852 190.032C228.465 190.214 229.136 190.078 229.598 189.616Z" fill="#2FA981"/>
<path fill-rule="evenodd" clip-rule="evenodd" d="M268.502 134.74L254.773 148.469L276.735 170.431L290.464 156.702L268.502 134.74ZM267.503 143.726L263.759 147.47L267.752 151.463L271.496 147.719L267.503 143.726ZM273.076 156.787L276.82 153.043L280.813 157.036L277.069 160.78L273.076 156.787Z" fill="#2FA981"/>
</svg>
