<svg width="836" height="426" viewBox="0 0 836 426" fill="none" xmlns="http://www.w3.org/2000/svg">
<path fill-rule="evenodd" clip-rule="evenodd" d="M836 0H0V404H347V398C347 394.686 349.686 392 353 392H481C484.314 392 487 394.686 487 398V404H836V0Z" fill="#16A085"/>
<path opacity="0.2" d="M440.159 118.293L533.843 65.2316L534.278 113.813L440.551 166.875L440.159 118.293Z" fill="url(#paint0_linear_8907_15003)"/>
<path opacity="0.15" d="M509.966 90.5447L481.782 106.507L481.826 112.335L510.009 96.3727L509.966 90.5447Z" fill="white"/>
<path opacity="0.15" d="M510.053 102.244L450.032 136.212L450.076 142.127L510.096 108.159L510.053 102.244Z" fill="white"/>
<path d="M514.967 92.2844C515.011 96.2857 517.403 98.1994 520.361 96.5032C523.318 94.8505 525.667 90.2402 525.623 86.2388C525.58 82.2375 523.188 80.3238 520.23 82.02C517.273 83.7162 514.924 88.283 514.967 92.2844Z" fill="#F2C94C"/>
<path opacity="0.2" d="M227 335.932L320.728 282.914L321.162 331.496L227.391 384.514L227 335.932Z" fill="url(#paint1_linear_8907_15003)"/>
<path opacity="0.15" d="M296.85 308.184L268.666 324.146L268.71 329.974L296.893 314.012L296.85 308.184Z" fill="white"/>
<path opacity="0.15" d="M296.893 319.883L236.873 353.852L236.916 359.767L296.937 325.798L296.893 319.883Z" fill="white"/>
<path d="M301.808 309.967C301.851 313.968 304.244 315.882 307.201 314.186C310.159 312.533 312.507 307.923 312.464 303.922C312.42 299.92 310.028 298.007 307.071 299.703C304.113 301.355 301.764 305.922 301.808 309.967Z" fill="#F2C94C"/>
<path opacity="0.1" d="M336.298 24.9137C353.956 28.3496 393.665 32.7859 410.975 23C410.845 92.241 393.883 190.492 338.429 271.519C282.106 253.731 263.621 175.53 262.316 107.159C279.626 97.3296 318.857 48.226 336.298 24.9137Z" fill="url(#paint2_linear_8907_15003)"/>
<path opacity="0.3" d="M357.871 39.2664C375.529 42.7023 415.238 47.1386 432.548 37.3527C432.418 106.55 415.455 204.801 360.002 285.828C303.678 268.04 285.194 189.883 283.889 121.468C301.199 111.639 340.43 62.5786 357.871 39.2664Z" fill="url(#paint3_linear_8907_15003)"/>
<path opacity="0.4" d="M283.889 121.468C301.243 111.639 340.43 62.5786 357.871 39.2664L360.002 285.828C303.678 268.04 285.194 189.883 283.889 121.468Z" fill="url(#paint4_linear_8907_15003)"/>
<path opacity="0.1" d="M450.859 169.441L364.09 218.545L365.873 425.441L452.598 376.337L450.859 169.441Z" fill="url(#paint5_linear_8907_15003)"/>
<path opacity="0.2" d="M440.594 263.342L375.181 300.355L375.659 357.853L441.116 320.84L440.594 263.342Z" fill="url(#paint6_linear_8907_15003)"/>
<path opacity="0.15" d="M438.985 225.069L408.757 242.161L408.801 248.076L439.028 230.984L438.985 225.069Z" fill="white"/>
<path opacity="0.15" d="M438.985 236.812L408.757 253.904L408.801 259.819L439.028 242.727L438.985 236.812Z" fill="white"/>
<path opacity="0.15" d="M439.203 248.12L381.792 280.609L381.835 286.524L439.246 254.035L439.203 248.12Z" fill="white"/>
<path opacity="0.2" d="M450.859 169.441L364.09 218.545L364.351 246.25L451.076 197.146L450.859 169.441Z" fill="url(#paint7_linear_8907_15003)"/>
<path opacity="0.2" d="M429.286 195.754C429.33 199.93 431.809 201.93 434.853 200.234C437.898 198.494 440.333 193.71 440.29 189.535C440.246 185.359 437.767 183.359 434.723 185.055C431.678 186.795 429.243 191.579 429.286 195.754Z" fill="white"/>
<path d="M400.102 263.255L399.885 239.421L341.082 272.693L341.3 296.528L400.102 263.255Z" fill="#F2C94C"/>
<path opacity="0.3" d="M467.821 162.656L597.256 87.9351L597.213 155.393L479.173 223.503L467.734 240.422L467.821 162.656Z" fill="url(#paint8_linear_8907_15003)"/>
<path d="M611 114.248V95.9377L562.157 124.121V142.432L611 114.248Z" fill="#F2994A"/>
<path opacity="0.15" d="M501.05 159.872L529.407 143.519V149.434L501.05 165.787V159.872Z" fill="white"/>
<path opacity="0.15" d="M501.05 171.703L555.72 140.17V146.085L501.05 177.618V171.703Z" fill="white"/>
<path opacity="0.15" d="M501.05 183.576L567.289 145.346V151.261L501.05 189.491V183.576Z" fill="white"/>
<path d="M494.091 170.093C494.091 175.661 490.785 182.054 486.74 184.403C482.696 186.751 479.39 184.142 479.39 178.575C479.39 173.008 482.696 166.614 486.74 164.265C490.785 161.917 494.091 164.526 494.091 170.093Z" fill="#F2994A"/>
<path opacity="0.2" d="M509.444 232.158C506.834 233.637 504.747 237.29 504.747 240.291V253.557L495.961 258.645C493.351 260.124 491.264 263.777 491.264 266.778C491.264 269.779 493.351 270.997 495.961 269.518L504.747 264.473V277.739C504.747 280.74 506.834 281.958 509.444 280.479C512.053 279 514.141 275.347 514.141 272.346V259.08L522.927 254.035C525.536 252.556 527.624 248.903 527.624 245.902C527.624 242.901 525.536 241.683 522.927 243.162L514.141 248.207V234.942C514.141 231.897 512.053 230.679 509.444 232.158Z" fill="url(#paint9_linear_8907_15003)"/>
<defs>
<linearGradient id="paint0_linear_8907_15003" x1="476.745" y1="97.5667" x2="497.669" y2="134.544" gradientUnits="userSpaceOnUse">
<stop stop-color="white"/>
<stop offset="1" stop-color="white" stop-opacity="0"/>
</linearGradient>
<linearGradient id="paint1_linear_8907_15003" x1="263.595" y1="315.209" x2="284.519" y2="352.187" gradientUnits="userSpaceOnUse">
<stop stop-color="white"/>
<stop offset="1" stop-color="white" stop-opacity="0"/>
</linearGradient>
<linearGradient id="paint2_linear_8907_15003" x1="450.144" y1="47.2688" x2="328.989" y2="155.702" gradientUnits="userSpaceOnUse">
<stop stop-color="white"/>
<stop offset="1" stop-color="white" stop-opacity="0"/>
</linearGradient>
<linearGradient id="paint3_linear_8907_15003" x1="471.712" y1="61.6097" x2="350.558" y2="170.043" gradientUnits="userSpaceOnUse">
<stop stop-color="white"/>
<stop offset="1" stop-color="white" stop-opacity="0"/>
</linearGradient>
<linearGradient id="paint4_linear_8907_15003" x1="277.567" y1="146.972" x2="374.757" y2="165.574" gradientUnits="userSpaceOnUse">
<stop stop-color="white"/>
<stop offset="1" stop-color="white" stop-opacity="0"/>
</linearGradient>
<linearGradient id="paint5_linear_8907_15003" x1="462.668" y1="243.535" x2="372.16" y2="333.418" gradientUnits="userSpaceOnUse">
<stop stop-color="white"/>
<stop offset="1" stop-color="white" stop-opacity="0"/>
</linearGradient>
<linearGradient id="paint6_linear_8907_15003" x1="429.018" y1="264.708" x2="390.776" y2="348.765" gradientUnits="userSpaceOnUse">
<stop stop-color="white"/>
<stop offset="1" stop-color="white" stop-opacity="0"/>
</linearGradient>
<linearGradient id="paint7_linear_8907_15003" x1="421.225" y1="169.717" x2="394.765" y2="243.799" gradientUnits="userSpaceOnUse">
<stop stop-color="white"/>
<stop offset="1" stop-color="white" stop-opacity="0"/>
</linearGradient>
<linearGradient id="paint8_linear_8907_15003" x1="496.025" y1="135.636" x2="562.852" y2="187.96" gradientUnits="userSpaceOnUse">
<stop stop-color="white"/>
<stop offset="1" stop-color="white" stop-opacity="0"/>
</linearGradient>
<linearGradient id="paint9_linear_8907_15003" x1="500.362" y1="249.123" x2="523.134" y2="267.094" gradientUnits="userSpaceOnUse">
<stop stop-color="white"/>
<stop offset="1" stop-color="white" stop-opacity="0"/>
</linearGradient>
</defs>
</svg>
